<svg width="18" height="18" viewBox="0 0 18 18" fill="none" xmlns="http://www.w3.org/2000/svg">
<g clip-path="url(#clip0_102_1146)">
<path d="M3.81843 8.16638H1.7842C1.50336 8.16638 1.27563 8.39407 1.27563 8.67495V16.8117C1.27563 17.0926 1.50332 17.3203 1.7842 17.3203H3.8184C4.09924 17.3203 4.32697 17.0926 4.32697 16.8117V8.67491C4.32697 8.39407 4.09931 8.16638 3.81843 8.16638Z" fill="white"/>
<path d="M16.5049 9.51452C16.4152 8.72561 15.6783 8.16646 14.8843 8.16646H10.9195C11.2564 7.56312 11.4373 5.85663 11.4293 5.15952C11.416 4.00562 10.4604 3.08093 9.30644 3.08093H8.8868C8.60572 3.08093 8.37824 3.30838 8.37824 3.5895C8.37824 4.7655 7.92032 6.88814 7.05671 7.75179C6.47543 8.33307 5.9785 8.54371 5.3269 8.86935V16.5002C6.32451 16.8327 7.59116 17.3204 9.52178 17.3204H12.8485C13.9446 17.3204 14.7983 16.3052 14.3736 15.2326C15.0207 15.0563 15.4979 14.4628 15.4979 13.7606C15.4979 13.5624 15.4597 13.3727 15.3907 13.1984C16.4812 12.9012 16.8826 11.5547 16.1257 10.7092C16.4038 10.3986 16.5571 9.97365 16.5049 9.51452Z" fill="white"/>
</g>
<defs>
<clipPath id="clip0_102_1146">
<rect width="17.3245" height="17.3245" fill="white" transform="translate(0.241699 -0.00415039)"/>
</clipPath>
</defs>
</svg>
