<svg width="22" height="13" viewBox="0 0 22 13" fill="none" xmlns="http://www.w3.org/2000/svg">
<path d="M20.503 12.3808H18.222C17.359 12.3808 17.099 11.6818 15.552 10.1338C14.2 8.83085 13.629 8.66885 13.287 8.66885C12.814 8.66885 12.685 8.79885 12.685 9.44985V11.5018C12.685 12.0568 12.505 12.3818 11.055 12.3818C9.64829 12.2873 8.28416 11.86 7.07497 11.135C5.86578 10.41 4.84612 9.40811 4.1 8.21185C2.32839 6.00687 1.09571 3.41893 0.5 0.653845C0.5 0.311845 0.63 0.00184509 1.282 0.00184509H3.562C4.148 0.00184509 4.359 0.262845 4.589 0.865845C5.696 4.12385 7.585 6.95785 8.352 6.95785C8.646 6.95785 8.774 6.82785 8.774 6.09485V2.73885C8.677 1.20785 7.864 1.07885 7.864 0.524845C7.87428 0.378686 7.94114 0.242294 8.05037 0.144638C8.15961 0.0469829 8.30261 -0.00424172 8.449 0.00184509H12.033C12.523 0.00184509 12.685 0.245845 12.685 0.831845V5.36185C12.685 5.85085 12.895 6.01284 13.043 6.01284C13.337 6.01284 13.563 5.85084 14.102 5.31284C15.2574 3.90383 16.2013 2.33401 16.904 0.652845C16.9759 0.450998 17.1119 0.27822 17.2912 0.160862C17.4705 0.0435048 17.6832 -0.0119892 17.897 0.00284501H20.178C20.862 0.00284501 21.007 0.344845 20.862 0.832845C20.0324 2.69126 19.0058 4.45535 17.8 6.09485C17.554 6.46985 17.456 6.66484 17.8 7.10484C18.026 7.44684 18.826 8.11485 19.363 8.74985C20.145 9.52985 20.794 10.4318 21.285 11.4198C21.481 12.0558 21.154 12.3808 20.503 12.3808Z" fill="white"/>
</svg>
