<svg width="18" height="18" viewBox="0 0 18 18" fill="none" xmlns="http://www.w3.org/2000/svg">
<g clip-path="url(#clip0_102_1146)">
<path d="M3.81843 8.16638H1.7842C1.50336 8.16638 1.27563 8.39407 1.27563 8.67495V16.8117C1.27563 17.0926 1.50332 17.3203 1.7842 17.3203H3.8184C4.09924 17.3203 4.32697 17.0926 4.32697 16.8117V8.67491C4.32697 8.39407 4.09931 8.16638 3.81843 8.16638Z" fill="white"/>
<path d="M16.522 9.51452C16.4323 8.72561 15.6954 8.16646 14.9014 8.16646H10.9366C11.2735 7.56312 11.4544 5.85663 11.4464 5.15952C11.4331 4.00562 10.4775 3.08093 9.32353 3.08093H8.90389C8.62281 3.08093 8.39532 3.30838 8.39532 3.5895C8.39532 4.7655 7.93741 6.88814 7.0738 7.75179C6.49251 8.33307 5.99559 8.54371 5.34399 8.86935V16.5002C6.3416 16.8327 7.60825 17.3204 9.53887 17.3204H12.8656C13.9617 17.3204 14.8154 16.3052 14.3907 15.2326C15.0378 15.0563 15.515 14.4628 15.515 13.7606C15.515 13.5624 15.4768 13.3727 15.4078 13.1984C16.4983 12.9012 16.8997 11.5547 16.1428 10.7092C16.4209 10.3986 16.5742 9.97365 16.522 9.51452Z" fill="white"/>
</g>
<defs>
<clipPath id="clip0_102_1146">
<rect width="17.3245" height="17.3245" fill="white" transform="translate(0.241699 -0.00415039)"/>
</clipPath>
</defs>
</svg>
